<?xml version="1.0" encoding="UTF-8" standalone="no"?>
<!DOCTYPE svg PUBLIC "-//W3C//DTD SVG 1.1//EN" "http://www.w3.org/Graphics/SVG/1.1/DTD/svg11.dtd">
<svg width="100%" height="100%" viewBox="0 0 250 250" version="1.1" xmlns="http://www.w3.org/2000/svg" xmlns:xlink="http://www.w3.org/1999/xlink" xml:space="preserve" xmlns:serif="http://www.serif.com/" style="fill-rule:evenodd;clip-rule:evenodd;stroke-linejoin:round;stroke-miterlimit:2;">
    <g transform="matrix(1.90073,0,0,1.90176,-151.319,-99.9071)">
        <path d="M145.362,52.729C181.542,52.729 210.915,82.103 210.915,118.283C210.915,154.462 181.542,183.836 145.362,183.836C109.182,183.836 79.809,154.462 79.809,118.283C79.809,82.103 109.182,52.729 145.362,52.729ZM145.362,74.256C169.661,74.256 189.389,93.984 189.389,118.283C189.389,142.581 169.661,162.309 145.362,162.309C121.063,162.309 101.335,142.581 101.335,118.283C101.335,93.984 121.063,74.256 145.362,74.256Z"/>
    </g>
</svg>
